# xmcd
#
# Track frame offsets:
#	150
#	15738
#	28020
#	43237
#	54995
#	68057
#	79710
#	95765
#	114530
#	131177
#	146453
#	157220
#	178063
#	190116
#	201276
#	217534
#	228777
#	244442
#	260289
#	271510
#	282077
#	296763
#
# Disc length: 4108 seconds
#
# Revision: 1
# Processed by: cddbd v1.4PL0 Copyright (c) Steve Scherf et al.
# Submitted via: EasyCDDAExtractor 5.0.6
#
DISCID=41100a16
DTITLE=Cascatinha and Inhana - Dose Dupla 2
DYEAR=1950
DGENRE=country
TTITLE0=Porta na cara
TTITLE1=Meu rumo é você
TTITLE2=Fazendinha do Indaiá
TTITLE3=Mensagem de artista
TTITLE4=Para que ocultar
TTITLE5=Conceito
TTITLE6=Cigarra vadia
TTITLE7=Eu quero apenas
TTITLE8=Tema novo
TTITLE9=Só nós dois
TTITLE10=Triste destino
TTITLE11=Azulão da mata
TTITLE12=Colcha de retalhos
TTITLE13=Na rota do chimarrão
TTITLE14=Coração magoado
TTITLE15=Alvorecer no sertão
TTITLE16=Fui culpado
TTITLE17=Coração incerto
TTITLE18=Mesmo caminho
TTITLE19=Eu, vendo dois olhos negros
TTITLE20=Minha oração
TTITLE21=Recordar é viver
EXTD=
EXTT0=
EXTT1=
EXTT2=
EXTT3=
EXTT4=
EXTT5=
EXTT6=
EXTT7=
EXTT8=
EXTT9=
EXTT10=
EXTT11=
EXTT12=
EXTT13=
EXTT14=
EXTT15=
EXTT16=
EXTT17=
EXTT18=
EXTT19=
EXTT20=
EXTT21=
PLAYORDER=
